<svg width="37" height="51" viewBox="0 0 37 51" fill="none" xmlns="http://www.w3.org/2000/svg">
<path d="M18.0947 0.5C27.8161 0.500048 35.6895 8.46871 35.6895 18.3359C35.6894 23.6544 32.8956 30.051 29.4609 35.8877C26.0388 41.7031 22.0315 46.8796 19.6992 49.7393C18.8653 50.7534 17.3496 50.7534 16.5156 49.7393C14.1711 46.8805 10.1571 41.7036 6.73145 35.8877C3.29361 30.0511 0.500013 23.6544 0.5 18.3359C0.5 8.46868 8.37334 0.5 18.0947 0.5Z" stroke="white"/>
<path d="M17.9619 10.5C21.2468 10.5 23.9248 13.2039 23.9248 16.5488C23.9246 19.8936 21.2467 22.5967 17.9619 22.5967C14.6774 22.5964 12.0002 19.8935 12 16.5488C12 13.2041 14.6773 10.5003 17.9619 10.5Z" stroke="white"/>
</svg>
